PathFileType	4	(X/Y/Z)	c:/Users/goper/Files/vsCode/490R/osim_files/C07/C07_SSWS_04.trc
DataRate	CameraRate	NumFrames	NumMarkers	Units                	OrigDataRate	OrigDataStartFrame	OrigNumFrames
250.00	250.00	10	36	mm	250.0	2759	3153
                Frame#	Time	LPSIS			LASIS			LTH1			LTH2			LTH3			LTH4			LLFE			LMFE			LSH1			LSH2			LSH3			LSH4			LLMAL			LMMAL			LCAL			LMTP5			LTOE			LMTP1			RPSIS			RASIS			RTH1			RTH2			RTH3			RTH4			RLFE			RMFE			RSH1			RSH2			RSH3			RSH4			RLMAL			RMMAL			RCAL			RMTP1			RTOE			RMTP5		
		X1	Y1	Z1	X2	Y2	Z2	X3	Y3	Z3	X4	Y4	Z4	X5	Y5	Z5	X6	Y6	Z6	X7	Y7	Z7	X8	Y8	Z8	X9	Y9	Z9	X10	Y10	Z10	X11	Y11	Z11	X12	Y12	Z12	X13	Y13	Z13	X14	Y14	Z14	X15	Y15	Z15	X16	Y16	Z16	X17	Y17	Z17	X18	Y18	Z18	X19	Y19	Z19	X20	Y20	Z20	X21	Y21	Z21	X22	Y22	Z22	X23	Y23	Z23	X24	Y24	Z24	X25	Y25	Z25	X26	Y26	Z26	X27	Y27	Z27	X28	Y28	Z28	X29	Y29	Z29	X30	Y30	Z30	X31	Y31	Z31	X32	Y32	Z32	X33	Y33	Z33	X34	Y34	Z34	X35	Y35	Z35	X36	Y36	Z36

2759	11.03200	1015.79071	987.66711	745.83252	1173.87207	964.47913	646.70758	1063.40857	782.45776	604.32141	1056.22253	704.62128	607.07794	1049.70630	629.84735	623.73602	1135.24365	700.12323	625.12024	0.00000	0.00000	0.00000	1001.17908	512.00958	652.78119	921.25873	331.88727	649.47321	896.93097	292.79651	667.15302	962.01874	327.97055	657.43427	948.44153	284.15762	667.73859	851.54871	116.87193	715.93878	892.64917	134.71764	782.88159	793.64130	57.38025	770.81445	959.10126	38.91307	665.65198	1023.89288	47.73663	707.70306	1003.66968	39.15633	765.50690	0.00000	0.00000	0.00000	0.00000	0.00000	0.00000	1192.52710	958.04858	902.16357	0.00000	0.00000	0.00000	0.00000	0.00000	0.00000	0.00000	0.00000	0.00000	0.00000	0.00000	0.00000	1272.40527	494.89072	801.11920	1269.82056	747.83344	923.53308	0.00000	0.00000	0.00000	0.00000	0.00000	0.00000	0.00000	0.00000	0.00000	0.00000	0.00000	0.00000	0.00000	0.00000	0.00000	1385.44751	37.85662	819.34412	0.00000	0.00000	0.00000	1350.29822	328.89337	925.64136	0.00000	0.00000	0.00000
2760	11.03600	1020.27600	986.88483	745.87311	1178.32825	963.91034	646.57990	1067.69983	781.90930	604.24866	1060.39514	704.02466	607.07074	1054.01782	629.41669	623.52588	1139.51392	699.55890	624.97192	0.00000	0.00000	0.00000	1005.24109	511.63712	652.54370	924.04901	332.03799	649.19666	899.43439	293.33377	666.61218	964.79626	327.76007	657.27850	950.80035	284.15421	667.47949	852.18585	117.66862	715.51416	893.45410	135.33411	782.67548	793.77155	58.41893	770.76508	959.15009	38.93107	665.61115	1023.94189	47.70147	707.64264	1003.70105	39.18844	765.52600	0.00000	0.00000	0.00000	0.00000	0.00000	0.00000	0.00000	0.00000	0.00000	1196.99597	957.53687	902.13531	0.00000	0.00000	0.00000	0.00000	0.00000	0.00000	0.00000	0.00000	0.00000	1278.04602	495.12860	800.52386	0.00000	0.00000	0.00000	1431.88928	129.67897	801.88824	0.00000	0.00000	0.00000	0.00000	0.00000	0.00000	0.00000	0.00000	0.00000	0.00000	0.00000	0.00000	1388.74097	38.19818	818.33875	0.00000	0.00000	0.00000	0.00000	0.00000	0.00000	0.00000	0.00000	0.00000
2761	11.04000	1024.75745	985.99615	745.87189	1182.86292	963.27344	646.50616	1072.15820	781.41461	604.12000	1064.87939	703.63928	606.77570	1058.35376	628.92798	623.36511	1143.88184	698.95636	624.95776	0.00000	0.00000	0.00000	1009.44891	511.22705	652.38000	926.81793	332.21890	648.92834	901.92529	293.68799	666.27228	967.52966	327.59943	657.15082	953.19629	284.14825	667.26801	852.72296	118.57072	715.23718	894.13159	136.09605	782.38000	793.95984	59.81447	770.39240	959.23010	38.97620	665.52972	1023.94287	47.60367	707.64185	1003.77222	39.19743	765.51990	0.00000	0.00000	0.00000	0.00000	0.00000	0.00000	1201.48328	957.09729	902.13446	0.00000	0.00000	0.00000	0.00000	0.00000	0.00000	0.00000	0.00000	0.00000	0.00000	0.00000	0.00000	1283.75793	495.27667	800.02057	0.00000	0.00000	0.00000	0.00000	0.00000	0.00000	0.00000	0.00000	0.00000	0.00000	0.00000	0.00000	0.00000	0.00000	0.00000	0.00000	0.00000	0.00000	1391.32190	38.47068	817.35913	0.00000	0.00000	0.00000	0.00000	0.00000	0.00000	0.00000	0.00000	0.00000
2762	11.04400	1029.26636	985.21906	745.86945	0.00000	0.00000	0.00000	1076.64600	780.96204	603.95679	1069.26477	703.10162	606.79163	1062.68066	628.38342	623.29993	1148.27502	698.50543	624.85608	0.00000	0.00000	0.00000	1013.63574	510.79022	652.26587	929.79742	332.42859	648.57990	904.39465	294.10132	665.93286	970.39948	327.48477	656.99359	955.62170	284.12476	667.14929	853.54565	119.58955	714.75946	894.88678	136.76558	782.11230	794.16644	61.13609	770.06592	959.28857	39.03937	665.47015	1024.00525	47.61796	707.56067	1003.97534	39.11890	765.29034	0.00000	0.00000	0.00000	0.00000	0.00000	0.00000	0.00000	0.00000	0.00000	1036.78455	984.84998	841.59851	0.00000	0.00000	0.00000	0.00000	0.00000	0.00000	0.00000	0.00000	0.00000	1289.21814	495.29117	800.02130	1206.02637	956.77173	902.15002	0.00000	0.00000	0.00000	0.00000	0.00000	0.00000	0.00000	0.00000	0.00000	0.00000	0.00000	0.00000	0.00000	0.00000	0.00000	1393.31860	38.90751	816.76422	0.00000	0.00000	0.00000	1362.47791	325.78326	923.93933	0.00000	0.00000	0.00000
2763	11.04800	1033.76416	984.54395	745.87537	0.00000	0.00000	0.00000	1081.08984	780.46112	603.96198	1073.72742	702.62341	606.74078	1067.14160	627.94000	623.16150	1152.79199	698.01929	624.78528	0.00000	0.00000	0.00000	1017.93109	510.42633	652.04327	932.81305	332.68799	648.14642	907.03320	294.59012	665.50220	973.45593	327.44171	656.70367	958.24841	284.14490	666.92340	854.32184	120.62072	714.30261	895.54541	137.49928	781.72308	794.40143	62.51109	769.68347	959.35211	39.08221	665.40710	1024.09656	47.62083	707.44867	1004.05756	39.13612	765.25482	0.00000	0.00000	0.00000	0.00000	0.00000	0.00000	1210.60413	956.43860	902.24200	0.00000	0.00000	0.00000	0.00000	0.00000	0.00000	0.00000	0.00000	0.00000	0.00000	0.00000	0.00000	1295.18530	495.70355	799.16144	0.00000	0.00000	0.00000	1595.19080	45.78285	882.83606	0.00000	0.00000	0.00000	0.00000	0.00000	0.00000	0.00000	0.00000	0.00000	0.00000	0.00000	0.00000	1394.65466	39.19955	816.41937	0.00000	0.00000	0.00000	0.00000	0.00000	0.00000	0.00000	0.00000	0.00000
2764	11.05200	1038.30530	983.73621	745.86481	0.00000	0.00000	0.00000	1085.68884	780.05695	603.84662	1078.29675	702.15826	606.64288	1071.75562	627.49353	623.01715	1157.36365	697.59180	624.70831	0.00000	0.00000	0.00000	1022.25330	509.98511	651.94183	935.98450	332.92285	647.82697	909.85120	295.20654	664.98639	976.40540	327.32486	656.61401	960.85248	284.29681	666.71820	854.83783	121.51013	714.05188	896.52679	138.23593	781.42322	794.74158	64.03342	769.61011	959.42004	39.13288	665.33551	1024.16406	47.59535	707.42188	1003.98419	39.37148	765.32660	0.00000	0.00000	0.00000	0.00000	0.00000	0.00000	1215.19690	956.19293	902.41711	0.00000	0.00000	0.00000	0.00000	0.00000	0.00000	0.00000	0.00000	0.00000	0.00000	0.00000	0.00000	1300.37378	495.53183	799.40234	1196.53479	961.59314	646.51453	0.00000	0.00000	0.00000	0.00000	0.00000	0.00000	0.00000	0.00000	0.00000	0.00000	0.00000	0.00000	0.00000	0.00000	0.00000	1395.39319	39.61686	815.71045	0.00000	0.00000	0.00000	1596.75562	44.14091	881.05414	0.00000	0.00000	0.00000
2765	11.05600	1042.92542	983.02484	745.84814	1201.21472	961.05249	646.53308	1090.34375	779.66498	603.81348	1082.92102	701.75610	606.55487	1076.27026	626.91803	623.04852	1161.88660	697.06543	624.72375	0.00000	0.00000	0.00000	1026.75623	509.53922	651.83063	939.10681	333.23651	647.52478	912.62982	295.74948	664.58777	979.60950	327.30350	656.35425	963.52063	284.41006	666.50482	855.68829	122.76035	713.57300	897.50055	139.13966	781.04584	795.07422	65.77065	768.99634	959.53223	39.18586	665.24005	1024.28479	47.57862	707.34039	1004.09308	39.37998	765.42212	0.00000	0.00000	0.00000	0.00000	0.00000	0.00000	1219.87622	956.00690	902.53473	0.00000	0.00000	0.00000	0.00000	0.00000	0.00000	0.00000	0.00000	0.00000	0.00000	0.00000	0.00000	1305.83777	495.55127	799.08893	0.00000	0.00000	0.00000	1298.56396	748.50824	923.40851	0.00000	0.00000	0.00000	0.00000	0.00000	0.00000	0.00000	0.00000	0.00000	0.00000	0.00000	0.00000	1396.20117	39.78827	814.95728	0.00000	0.00000	0.00000	0.00000	0.00000	0.00000	0.00000	0.00000	0.00000
2766	11.06000	1047.52637	982.26550	745.81708	1205.90393	960.59393	646.54938	1094.95251	779.17529	603.83984	1087.54663	701.27570	606.56024	1080.95227	626.50024	622.93250	1166.58875	696.64368	624.69458	0.00000	0.00000	0.00000	1031.37939	509.25244	651.64752	942.41681	333.52072	647.15460	915.39423	296.39047	664.20386	982.66162	327.19391	656.33325	966.24603	284.46628	666.35895	856.78613	124.08051	712.93488	898.43903	139.95261	780.65808	795.46155	67.48357	768.70361	959.61517	39.21844	665.19220	1024.39636	47.53127	707.26349	1004.15454	39.40190	765.29327	0.00000	0.00000	0.00000	0.00000	0.00000	0.00000	1224.60632	955.88678	902.72644	0.00000	0.00000	0.00000	0.00000	0.00000	0.00000	0.00000	0.00000	0.00000	0.00000	0.00000	0.00000	1311.25220	495.60648	798.67828	1393.45825	280.05371	913.27960	0.00000	0.00000	0.00000	0.00000	0.00000	0.00000	0.00000	0.00000	0.00000	0.00000	0.00000	0.00000	0.00000	0.00000	0.00000	1396.74109	40.04104	814.32678	0.00000	0.00000	0.00000	0.00000	0.00000	0.00000	0.00000	0.00000	0.00000
2767	11.06400	1050.74597	981.99872	745.71503	1210.51538	960.10291	646.62427	1099.57581	778.73413	603.90356	1092.27185	700.81494	606.60590	1085.69824	626.08923	622.88574	1171.29602	696.19000	624.70239	0.00000	0.00000	0.00000	1035.98901	508.78577	651.51306	945.71716	333.90814	646.83136	918.51093	297.15573	663.63330	985.94440	327.18933	656.14789	969.12628	284.70538	666.01337	857.55066	125.26726	712.61829	899.49554	141.05074	780.37073	795.93640	69.34024	768.36835	959.70465	39.26908	665.15338	1024.51343	47.48616	707.23676	1004.27948	39.39294	765.26514	0.00000	0.00000	0.00000	0.00000	0.00000	0.00000	1229.43689	955.77545	902.90411	0.00000	0.00000	0.00000	0.00000	0.00000	0.00000	0.00000	0.00000	0.00000	0.00000	0.00000	0.00000	1316.61047	495.82382	797.93707	0.00000	0.00000	0.00000	1382.45825	321.47073	919.17249	0.00000	0.00000	0.00000	0.00000	0.00000	0.00000	0.00000	0.00000	0.00000	0.00000	0.00000	0.00000	1397.18237	40.02163	813.75195	0.00000	0.00000	0.00000	1425.40613	92.84093	867.44263	0.00000	0.00000	0.00000
2768	11.06800	1055.60498	981.29419	745.56287	1215.25903	959.67529	646.61078	1104.36462	778.33948	603.78473	1097.01892	700.39166	606.56885	1090.48108	625.62665	622.83478	1176.00500	695.74774	624.73285	0.00000	0.00000	0.00000	1040.78540	508.45041	651.36761	949.12604	334.39725	646.42773	921.24707	297.67426	663.39319	989.23792	327.25644	655.92450	971.85516	284.83304	665.93817	858.59979	126.68488	712.18768	900.48743	141.81969	779.98657	796.32593	71.32230	767.93182	959.86005	39.35113	665.09454	1024.60620	47.43296	707.15796	1004.42438	39.39401	765.25012	0.00000	0.00000	0.00000	0.00000	0.00000	0.00000	1234.31519	955.72101	903.11597	0.00000	0.00000	0.00000	0.00000	0.00000	0.00000	0.00000	0.00000	0.00000	0.00000	0.00000	0.00000	1321.53613	495.72568	797.60370	1314.55994	749.21277	923.70099	0.00000	0.00000	0.00000	0.00000	0.00000	0.00000	0.00000	0.00000	0.00000	0.00000	0.00000	0.00000	1452.16821	121.21482	793.08557	1398.16492	40.28073	812.83661	0.00000	0.00000	0.00000	0.00000	0.00000	0.00000	0.00000	0.00000	0.00000
